PathFileType	4	(X/Y/Z)	Run_500 03
DataRate	CameraRate	NumFrames	NumMarkers	Units	OrigDataRate	OrigDataStartFrame	OrigNumFrames
100	100	5	45	mm	100	99	137
Frame#	Time	RASI			LPSI			RPSI			RTH1			RTH2			RTH3			LTH1			LTH2			LTH3			RTB1			RTB2			RTB3			RLMAL			RMMAL			LTB1			LTB2			LTB3			RCAL			RTOE			RMT5			LCAL			LTOE			LMT5			LACR			RACR			CLAV			C7			LPSH			RUA1			RUA2			RUA3			RLEL			RMEL			LUA1			LUA2			LUA3			LLEL			LMEL			RFAsuperior			RFAradius			RFAulna			LFAsuperior			LFAradius			LFAulna			LASI			
		X1	Y1	Z1	X2	Y2	Z2	X3	Y3	Z3	X4	Y4	Z4	X5	Y5	Z5	X6	Y6	Z6	X7	Y7	Z7	X8	Y8	Z8	X9	Y9	Z9	X10	Y10	Z10	X11	Y11	Z11	X12	Y12	Z12	X13	Y13	Z13	X14	Y14	Z14	X15	Y15	Z15	X16	Y16	Z16	X17	Y17	Z17	X18	Y18	Z18	X19	Y19	Z19	X20	Y20	Z20	X21	Y21	Z21	X22	Y22	Z22	X23	Y23	Z23	X24	Y24	Z24	X25	Y25	Z25	X26	Y26	Z26	X27	Y27	Z27	X28	Y28	Z28	X29	Y29	Z29	X30	Y30	Z30	X31	Y31	Z31	X32	Y32	Z32	X33	Y33	Z33	X34	Y34	Z34	X35	Y35	Z35	X36	Y36	Z36	X37	Y37	Z37	X38	Y38	Z38	X39	Y39	Z39	X40	Y40	Z40	X41	Y41	Z41	X42	Y42	Z42	X43	Y43	Z43	X44	Y44	Z44	X45	Y45	Z45	

92	1.24	959.472262	1071.992597	-236.53422	776.337571	1120.118141	-377.08409	789.749026	1114.712753	-286.864352	827.461592	810.509199	-195.826957	882.3783989999999	731.702424	-228.08408	794.836487	648.5928720000001	-237.288625	880.146291	865.95867	-508.788256	989.79642	788.154499	-518.5576610000001	979.792552	679.784219	-483.780727	659.954782	488.277384	-285.975113	597.838651	533.740931	-250.25676	474.427794	499.896327	-292.199211	363.84131	542.845853	-282.745546	382.426903	502.559347	-356.246001	1106.052194	478.327559	-444.829471	1052.726695	355.791111	-447.924154	1144.045244	292.041132	-407.180712	351.458994	581.993947	-362.474783	286.583731	382.332258	-281.522469	280.814174	468.591367	-235.64623	1084.699172	138.290807	-335.988499	1306.437193	149.397827	-359.126695	1252.713827	100.734814	-417.533433	858.0927349999999	1578.852188	-501.706564	955.768061	1560.75449	-198.99107	982.353477	1505.815072	-347.013779	872.41162	1597.876402	-341.14484	775.872888	1556.583742	-477.747474	910.567	1428.748254	-96.69354800000001	821.2483559999999	1400.485994	-87.31112299999999	826.071333	1345.471693	-42.497842	830.945283	1275.616039	-19.58104	769.308501	1273.448649	-89.52803299999999	733.031684	1497.854147	-527.243247	672.388072	1442.777633	-479.490483	638.30287	1407.793997	-537.259103	598.789354	1333.19678	-556.299526	609.75076	1324.813781	-467.430464	868.43389	1223.34475	-66.339725	998.975535	1257.331427	-212.753392	1000.841851	1192.239236	-192.658564	655.256005	1252.476604	-545.69449	831.724887	1244.895391	-550.763954	807.3805159999999	1181.188878	-557.945565	927.807803	1089.507948	-460.372877	
93	1.25	957.291886	1065.728812	-236.571264	773.570688	1113.243895	-376.165729	786.922521	1107.550515	-286.773754	833.1706	802.4896220000001	-195.133735	893.2874430000001	724.991761	-225.931824	810.304335	638.677046	-237.18023	877.3787139999999	861.30627	-506.874199	987.738298	784.835062	-512.130961	976.068928	674.843118	-482.732053	680.184845	484.9959	-285.070192	620.532762	533.055582	-248.617942	495.861932	506.340956	-290.700284	387.722828	555.088439	-280.364531	404.087447	514.627701	-354.318083	1094.99081	467.937184	-442.728651	1035.561387	347.948394	-446.939153	1124.276393	279.6416	-406.189097	375.364246	595.579471	-359.744931	306.277445	397.06068	-279.63253	303.442024	483.101004	-232.956675	1056.971243	128.19086	-336.626296	1278.905496	127.964633	-355.080892	1223.971214	82.062245	-415.062992	860.4216699999999	1570.108094	-503.669293	954.60928	1554.472161	-198.860836	982.58994	1498.976241	-346.842508	872.530684	1591.339256	-341.768931	777.526278	1547.561401	-481.710029	905.4870089999999	1425.250861	-95.50190000000001	815.736988	1398.356517	-88.359814	818.479169	1344.281756	-42.021315	821.280208	1274.486237	-17.526192	762.1981019999999	1272.188344	-89.12831300000001	736.1318	1486.413109	-532.466322	675.026293	1430.132131	-485.641685	643.419455	1394.391844	-544.4149	605.470775	1319.519935	-564.3707900000001	615.31058	1310.549829	-475.731018	858.247238	1219.240115	-61.335106	994.2985619999999	1243.32631	-204.511951	993.1886469999999	1178.384797	-183.297366	662.597794	1239.026378	-553.459663	839.221004	1232.814014	-555.951772	815.529258	1169.01682	-563.763732	925.046517	1081.564125	-460.64509	
94	1.26	954.531492	1058.985638	-236.221961	771.52085	1105.514205	-375.50495	784.118654	1099.627253	-286.748087	839.4627819999999	793.661717	-194.371981	905.256081	718.63549	-223.420198	827.472349	628.869983	-236.269431	874.117491	855.134577	-505.952379	985.145497	779.460019	-504.395849	971.572186	668.034269	-482.326345	702.83968	480.958216	-283.669699	645.4009160000001	530.9095	-246.536934	519.961038	510.218269	-288.634984	413.992736	563.25937	-277.312758	428.712992	523.6460489999999	-352.022074	1082.337947	455.571288	-441.42832	1016.999878	338.336716	-447.923463	1101.423718	265.192603	-406.439199	401.566327	605.869624	-355.6836	329.52862	407.243034	-279.022103	328.845081	492.32672	-230.531311	1024.144192	117.236591	-337.919683	1246.969059	105.076961	-352.364091	1189.409324	64.854545	-414.909749	863.194329	1560.563128	-505.846392	952.951992	1547.112181	-198.524125	982.723667	1491.223189	-346.546575	872.700907	1584.043928	-342.402889	779.738276	1537.445008	-486.076342	899.72082	1420.76871	-94.440327	809.592661	1394.88227	-89.893266	810.248831	1342.044506	-41.807048	811.05325	1272.442565	-15.492116	754.886476	1269.639499	-88.77512900000001	739.944871	1473.863577	-538.281936	678.37352	1416.188881	-492.647159	649.348162	1379.876662	-552.343611	613.18303	1304.815568	-573.095421	621.574075	1295.266367	-484.607108	847.499192	1214.333119	-56.177106	988.8806070000001	1228.266625	-195.476103	984.840612	1163.714393	-173.176184	670.9827320000001	1224.677323	-561.778779	847.742015	1219.840668	-561.101085	824.782755	1155.923239	-569.733211	923.2653319999999	1072.129668	-461.059955	
95	1.27	951.5008800000001	1051.680961	-235.101457	770.37003	1097.257595	-375.430816	781.4737730000001	1091.057933	-286.85595	846.873785	784.133145	-193.424768	918.427073	712.758878	-220.57735	846.119508	619.205598	-234.454257	870.80399	846.641393	-506.232584	981.641764	770.531258	-497.617389	965.773696	658.2026080000001	-482.085812	727.721252	476.331372	-281.898824	672.078466	527.354517	-244.032235	546.254252	511.511614	-285.972079	442.104488	567.418877	-273.787856	455.704857	529.4938540000001	-349.498804	1067.775628	440.704423	-439.477269	997.4458059999999	326.600401	-450.025237	1074.097034	248.937134	-405.328206	429.527855	612.6012480000001	-350.747495	355.654927	412.927109	-279.393643	356.605694	496.49565	-228.267265	984.372775	105.641334	-338.543481	1209.371623	85.98279700000001	-349.858936	1148.868361	53.93552	-415.764432	866.460234	1550.508022	-508.058136	950.757142	1538.677983	-198.15252	982.7529939999999	1482.441328	-346.096839	872.782132	1575.977157	-343.296046	782.674967	1526.409219	-490.677353	893.261078	1415.245873	-93.633854	802.699919	1390.147954	-91.915854	801.285339	1338.828272	-41.974658	800.244858	1269.597864	-13.579287	747.082519	1265.8047	-88.464152	744.6440720000001	1460.529862	-544.605093	682.592913	1401.269546	-500.411313	656.240333	1364.44532	-560.775534	622.128969	1289.281446	-582.297344	628.732409	1279.238066	-493.858331	836.222672	1208.562597	-51.075903	982.6310989999999	1212.369981	-185.65359	975.61225	1148.483247	-162.312593	680.591811	1209.665161	-570.417841	857.390031	1206.249263	-566.208791	835.159077	1142.188057	-575.667715	922.441314	1062.027074	-462.097345	
96	1.28	948.659897	1043.633552	-233.249815	769.285032	1088.953219	-376.158511	778.639581	1082.050733	-287.247401	855.81759	774.2542529999999	-192.275492	932.689219	707.179315	-217.469363	866.151472	609.6438889999999	-231.69977	867.820093	836.362319	-507.538429	977.23425	758.1710859999999	-494.01448	958.698456	645.961223	-481.561939	754.566679	471.345321	-279.826851	700.2225100000001	522.5482029999999	-241.064754	574.315506	510.340623	-282.958355	471.455259	567.898237	-269.95239	484.430123	532.066562	-346.785087	1051.293521	424.581262	-435.193297	976.068793	314.69903	-450.587114	1041.885728	233.12669	-400.339936	458.516107	615.672954	-345.474532	384.31284	414.235296	-280.241079	386.226131	496.031222	-226.065974	938.052354	95.43686	-336.91331	1165.88698	74.34475399999999	-346.911601	1103.171005	50.803163	-415.707065	870.228943	1540.211049	-510.158018	947.80232	1529.406724	-197.837268	982.734389	1472.604552	-345.423921	872.499765	1566.950958	-344.572173	786.317419	1514.792273	-495.406416	886.015749	1408.62452	-93.10404200000001	794.964106	1384.273471	-94.314516	791.5151	1334.686388	-42.585998	788.802459	1266.029901	-11.958798	738.633052	1260.744718	-88.34163700000001	750.2982929999999	1446.729823	-551.286115	687.782914	1385.875967	-508.65873	664.267236	1348.35527	-569.400862	632.44119	1273.238704	-591.7714109999999	637.069866	1262.728156	-503.41068	824.369318	1202.066093	-46.168346	975.462655	1196.040267	-175.025931	965.394855	1132.9448	-150.930476	691.569138	1194.285231	-579.174629	868.25567	1192.452542	-571.346167	846.721465	1128.234788	-581.491485	921.63794	1052.003043	-464.016325	
